<?xml version="1.0" encoding="UTF-8" standalone="no"?>
<!DOCTYPE svg PUBLIC "-//W3C//DTD SVG 1.1//EN"
 "http://www.w3.org/Graphics/SVG/1.1/DTD/svg11.dtd">
<!-- Generated by graphviz version 2.40.1 (20161225.0304)
 -->
<!-- Title: models_diagram Pages: 1 -->
<svg width="1188pt" height="658pt"
 viewBox="0.00 0.00 1188.34 657.62" xmlns="http://www.w3.org/2000/svg" xmlns:xlink="http://www.w3.org/1999/xlink">
<g id="graph0" class="graph" transform="scale(1 1) rotate(0) translate(36 621.6182)">
<title>models_diagram</title>
<polygon fill="#ffffff" stroke="transparent" points="-36,36 -36,-621.6182 1152.3395,-621.6182 1152.3395,36 -36,36"/>
<!-- Usuario -->
<g id="node1" class="node">
<title>Usuario</title>
<polygon fill="#add8e6" stroke="transparent" points="0,-307.741 0,-329.741 112,-329.741 112,-307.741 0,-307.741"/>
<polygon fill="none" stroke="#000000" points="0,-307.741 0,-329.741 112,-329.741 112,-307.741 0,-307.741"/>
<text text-anchor="start" x="40.1725" y="-316.741" font-family="Times,serif" font-weight="bold" font-size="10.00" fill="#000000">Usuario</text>
<polygon fill="none" stroke="#000000" points="0,-285.741 0,-307.741 112,-307.741 112,-285.741 0,-285.741"/>
<text text-anchor="start" x="5" y="-294.741" font-family="Times,serif" text-decoration="underline" font-size="10.00" fill="#000000">id_usuario</text>
<text text-anchor="start" x="47.215" y="-294.741" font-family="Times,serif" font-size="10.00" fill="#000000">: NUMBER</text>
<polygon fill="none" stroke="#000000" points="0,-263.741 0,-285.741 112,-285.741 112,-263.741 0,-263.741"/>
<text text-anchor="start" x="5" y="-271.741" font-family="Times,serif" font-size="10.00" fill="#000000">nombre: STRING</text>
<polygon fill="none" stroke="#000000" points="0,-241.741 0,-263.741 112,-263.741 112,-241.741 0,-241.741"/>
<text text-anchor="start" x="5" y="-249.741" font-family="Times,serif" font-size="10.00" fill="#000000">email: STRING</text>
<polygon fill="none" stroke="#000000" points="0,-219.741 0,-241.741 112,-241.741 112,-219.741 0,-219.741"/>
<text text-anchor="start" x="4.762" y="-227.741" font-family="Times,serif" font-size="10.00" fill="#000000">password_hash: STRING</text>
<polygon fill="none" stroke="#000000" points="0,-197.741 0,-219.741 112,-219.741 112,-197.741 0,-197.741"/>
<text text-anchor="start" x="5" y="-205.741" font-family="Times,serif" font-size="10.00" fill="#000000">telefono: STRING</text>
<polygon fill="none" stroke="#000000" points="0,-175.741 0,-197.741 112,-197.741 112,-175.741 0,-175.741"/>
<text text-anchor="start" x="5" y="-183.741" font-family="Times,serif" font-size="10.00" fill="#000000">ultimo_acceso: DATE</text>
<polygon fill="none" stroke="#000000" points="0,-153.741 0,-175.741 112,-175.741 112,-153.741 0,-153.741"/>
<text text-anchor="start" x="5" y="-161.741" font-family="Times,serif" font-size="10.00" fill="#000000">createdAt: DATE</text>
<polygon fill="none" stroke="#000000" points="0,-131.741 0,-153.741 112,-153.741 112,-131.741 0,-131.741"/>
<text text-anchor="start" x="5" y="-139.741" font-family="Times,serif" font-size="10.00" fill="#000000">updatedAt: DATE</text>
</g>
<!-- Estancia -->
<g id="node2" class="node">
<title>Estancia</title>
<polygon fill="#add8e6" stroke="transparent" points="565.7099,-198 565.7099,-220 699.7099,-220 699.7099,-198 565.7099,-198"/>
<polygon fill="none" stroke="#000000" points="565.7099,-198 565.7099,-220 699.7099,-220 699.7099,-198 565.7099,-198"/>
<text text-anchor="start" x="615.7734" y="-207" font-family="Times,serif" font-weight="bold" font-size="10.00" fill="#000000">Estancia</text>
<polygon fill="none" stroke="#000000" points="565.7099,-176 565.7099,-198 699.7099,-198 699.7099,-176 565.7099,-176"/>
<text text-anchor="start" x="570.7099" y="-185" font-family="Times,serif" text-decoration="underline" font-size="10.00" fill="#000000">id_estancia</text>
<text text-anchor="start" x="615.6919" y="-185" font-family="Times,serif" font-size="10.00" fill="#000000">: NUMBER</text>
<polygon fill="none" stroke="#000000" points="565.7099,-154 565.7099,-176 699.7099,-176 699.7099,-154 565.7099,-154"/>
<text text-anchor="start" x="570.7099" y="-163" font-family="Times,serif" font-style="italic" text-decoration="underline" font-size="10.00" fill="#000000">id_usuario</text>
<text text-anchor="start" x="612.9249" y="-163" font-family="Times,serif" font-size="10.00" fill="#000000">: NUMBER</text>
<polygon fill="none" stroke="#000000" points="565.7099,-132 565.7099,-154 699.7099,-154 699.7099,-132 565.7099,-132"/>
<text text-anchor="start" x="570.7099" y="-140" font-family="Times,serif" font-size="10.00" fill="#000000">nombre: STRING</text>
<polygon fill="none" stroke="#000000" points="565.7099,-110 565.7099,-132 699.7099,-132 699.7099,-110 565.7099,-110"/>
<text text-anchor="start" x="570.7099" y="-118" font-family="Times,serif" font-size="10.00" fill="#000000">departamento: STRING</text>
<polygon fill="none" stroke="#000000" points="565.7099,-88 565.7099,-110 699.7099,-110 699.7099,-88 565.7099,-88"/>
<text text-anchor="start" x="570.7099" y="-96" font-family="Times,serif" font-size="10.00" fill="#000000">provincia: STRING</text>
<polygon fill="none" stroke="#000000" points="565.7099,-66 565.7099,-88 699.7099,-88 699.7099,-66 565.7099,-66"/>
<text text-anchor="start" x="570.3649" y="-74" font-family="Times,serif" font-size="10.00" fill="#000000">superficie_total_ha: NUMBER</text>
<polygon fill="none" stroke="#000000" points="565.7099,-44 565.7099,-66 699.7099,-66 699.7099,-44 565.7099,-44"/>
<text text-anchor="start" x="570.7099" y="-52" font-family="Times,serif" font-size="10.00" fill="#000000">geom: GEOMETRY</text>
<polygon fill="none" stroke="#000000" points="565.7099,-22 565.7099,-44 699.7099,-44 699.7099,-22 565.7099,-22"/>
<text text-anchor="start" x="570.7099" y="-30" font-family="Times,serif" font-size="10.00" fill="#000000">createdAt: DATE</text>
<polygon fill="none" stroke="#000000" points="565.7099,0 565.7099,-22 699.7099,-22 699.7099,0 565.7099,0"/>
<text text-anchor="start" x="570.7099" y="-8" font-family="Times,serif" font-size="10.00" fill="#000000">updatedAt: DATE</text>
</g>
<!-- Estancia&#45;&gt;Usuario -->
<g id="edge1" class="edge">
<title>Estancia&#45;&gt;Usuario</title>
<path fill="none" stroke="#000000" stroke-width=".75" d="M565.7081,-124.0276C450.9892,-148.0454 219.0128,-196.6124 112.1826,-218.9785"/>
</g>
<!-- Potrero -->
<g id="node3" class="node">
<title>Potrero</title>
<polygon fill="#add8e6" stroke="transparent" points="582.748,-448.4622 582.748,-470.4622 693.748,-470.4622 693.748,-448.4622 582.748,-448.4622"/>
<polygon fill="none" stroke="#000000" points="582.748,-448.4622 582.748,-470.4622 693.748,-470.4622 693.748,-448.4622 582.748,-448.4622"/>
<text text-anchor="start" x="623.5305" y="-457.4622" font-family="Times,serif" font-weight="bold" font-size="10.00" fill="#000000">Potrero</text>
<polygon fill="none" stroke="#000000" points="582.748,-426.4622 582.748,-448.4622 693.748,-448.4622 693.748,-426.4622 582.748,-426.4622"/>
<text text-anchor="start" x="587.748" y="-435.4622" font-family="Times,serif" text-decoration="underline" font-size="10.00" fill="#000000">id_potrero</text>
<text text-anchor="start" x="629.403" y="-435.4622" font-family="Times,serif" font-size="10.00" fill="#000000">: NUMBER</text>
<polygon fill="none" stroke="#000000" points="582.748,-404.4622 582.748,-426.4622 693.748,-426.4622 693.748,-404.4622 582.748,-404.4622"/>
<text text-anchor="start" x="587.748" y="-413.4622" font-family="Times,serif" font-style="italic" text-decoration="underline" font-size="10.00" fill="#000000">id_estancia</text>
<text text-anchor="start" x="632.73" y="-413.4622" font-family="Times,serif" font-size="10.00" fill="#000000">: NUMBER</text>
<polygon fill="none" stroke="#000000" points="582.748,-382.4622 582.748,-404.4622 693.748,-404.4622 693.748,-382.4622 582.748,-382.4622"/>
<text text-anchor="start" x="587.748" y="-390.4622" font-family="Times,serif" font-size="10.00" fill="#000000">nombre: STRING</text>
<polygon fill="none" stroke="#000000" points="582.748,-360.4622 582.748,-382.4622 693.748,-382.4622 693.748,-360.4622 582.748,-360.4622"/>
<text text-anchor="start" x="587.748" y="-368.4622" font-family="Times,serif" font-size="10.00" fill="#000000">descripcion: STRING</text>
<polygon fill="none" stroke="#000000" points="582.748,-338.4622 582.748,-360.4622 693.748,-360.4622 693.748,-338.4622 582.748,-338.4622"/>
<text text-anchor="start" x="587.291" y="-346.4622" font-family="Times,serif" font-size="10.00" fill="#000000">superficie_ha: NUMBER</text>
<polygon fill="none" stroke="#000000" points="582.748,-316.4622 582.748,-338.4622 693.748,-338.4622 693.748,-316.4622 582.748,-316.4622"/>
<text text-anchor="start" x="587.748" y="-324.4622" font-family="Times,serif" font-size="10.00" fill="#000000">geom: GEOMETRY</text>
<polygon fill="none" stroke="#000000" points="582.748,-294.4622 582.748,-316.4622 693.748,-316.4622 693.748,-294.4622 582.748,-294.4622"/>
<text text-anchor="start" x="587.748" y="-302.4622" font-family="Times,serif" font-size="10.00" fill="#000000">activo: BOOLEAN</text>
<polygon fill="none" stroke="#000000" points="582.748,-272.4622 582.748,-294.4622 693.748,-294.4622 693.748,-272.4622 582.748,-272.4622"/>
<text text-anchor="start" x="587.748" y="-280.4622" font-family="Times,serif" font-size="10.00" fill="#000000">createdAt: DATE</text>
<polygon fill="none" stroke="#000000" points="582.748,-250.4622 582.748,-272.4622 693.748,-272.4622 693.748,-250.4622 582.748,-250.4622"/>
<text text-anchor="start" x="587.748" y="-258.4622" font-family="Times,serif" font-size="10.00" fill="#000000">updatedAt: DATE</text>
</g>
<!-- Potrero&#45;&gt;Estancia -->
<g id="edge2" class="edge">
<title>Potrero&#45;&gt;Estancia</title>
<path fill="none" stroke="#000000" stroke-width=".75" d="M635.4083,-244.1494C635.2478,-236.1678 635.0862,-228.1377 634.9263,-220.1895"/>
<polygon fill="#000000" stroke="#000000" stroke-width=".75" points="635.4101,-244.2426 632.8314,-250.2957 635.4705,-247.242 635.5308,-250.2414 635.5308,-250.2414 635.5308,-250.2414 635.4705,-247.242 638.2303,-250.187 635.4101,-244.2426 635.4101,-244.2426"/>
</g>
<!-- ZonaPotrero -->
<g id="node4" class="node">
<title>ZonaPotrero</title>
<polygon fill="#add8e6" stroke="transparent" points="418.2713,-563.6182 418.2713,-585.6182 541.2713,-585.6182 541.2713,-563.6182 418.2713,-563.6182"/>
<polygon fill="none" stroke="#000000" points="418.2713,-563.6182 418.2713,-585.6182 541.2713,-585.6182 541.2713,-563.6182 418.2713,-563.6182"/>
<text text-anchor="start" x="454.7798" y="-572.6182" font-family="Times,serif" font-weight="bold" font-size="10.00" fill="#000000">ZonaPotrero</text>
<polygon fill="none" stroke="#000000" points="418.2713,-541.6182 418.2713,-563.6182 541.2713,-563.6182 541.2713,-541.6182 418.2713,-541.6182"/>
<text text-anchor="start" x="422.9783" y="-550.6182" font-family="Times,serif" text-decoration="underline" font-size="10.00" fill="#000000">id_zona_potrero</text>
<text text-anchor="start" x="488.5113" y="-550.6182" font-family="Times,serif" font-size="10.00" fill="#000000">: NUMBER</text>
<polygon fill="none" stroke="#000000" points="418.2713,-519.6182 418.2713,-541.6182 541.2713,-541.6182 541.2713,-519.6182 418.2713,-519.6182"/>
<text text-anchor="start" x="423.2713" y="-528.6182" font-family="Times,serif" font-style="italic" text-decoration="underline" font-size="10.00" fill="#000000">id_potrero</text>
<text text-anchor="start" x="464.9263" y="-528.6182" font-family="Times,serif" font-size="10.00" fill="#000000">: NUMBER</text>
<polygon fill="none" stroke="#000000" points="418.2713,-497.6182 418.2713,-519.6182 541.2713,-519.6182 541.2713,-497.6182 418.2713,-497.6182"/>
<text text-anchor="start" x="423.2713" y="-505.6182" font-family="Times,serif" font-size="10.00" fill="#000000">tipo: ENUM</text>
<polygon fill="none" stroke="#000000" points="418.2713,-475.6182 418.2713,-497.6182 541.2713,-497.6182 541.2713,-475.6182 418.2713,-475.6182"/>
<text text-anchor="start" x="423.2713" y="-483.6182" font-family="Times,serif" font-size="10.00" fill="#000000">preferencia: ENUM</text>
<polygon fill="none" stroke="#000000" points="418.2713,-453.6182 418.2713,-475.6182 541.2713,-475.6182 541.2713,-453.6182 418.2713,-453.6182"/>
<text text-anchor="start" x="423.2713" y="-461.6182" font-family="Times,serif" font-size="10.00" fill="#000000">geom: GEOMETRY</text>
<polygon fill="none" stroke="#000000" points="418.2713,-431.6182 418.2713,-453.6182 541.2713,-453.6182 541.2713,-431.6182 418.2713,-431.6182"/>
<text text-anchor="start" x="423.2713" y="-439.6182" font-family="Times,serif" font-size="10.00" fill="#000000">createdAt: DATE</text>
<polygon fill="none" stroke="#000000" points="418.2713,-409.6182 418.2713,-431.6182 541.2713,-431.6182 541.2713,-409.6182 418.2713,-409.6182"/>
<text text-anchor="start" x="423.2713" y="-417.6182" font-family="Times,serif" font-size="10.00" fill="#000000">updatedAt: DATE</text>
</g>
<!-- ZonaPotrero&#45;&gt;Potrero -->
<g id="edge3" class="edge">
<title>ZonaPotrero&#45;&gt;Potrero</title>
<path fill="none" stroke="#000000" stroke-width=".75" d="M545.7897,-440.0489C557.8871,-429.579 570.3907,-418.7575 582.1327,-408.5953"/>
<polygon fill="#000000" stroke="#000000" stroke-width=".75" points="545.5331,-440.2709 539.2294,-442.1558 543.2647,-442.2342 540.9963,-444.1974 540.9963,-444.1974 540.9963,-444.1974 543.2647,-442.2342 542.7632,-446.239 545.5331,-440.2709 545.5331,-440.2709"/>
</g>
<!-- Rodeo -->
<g id="node5" class="node">
<title>Rodeo</title>
<polygon fill="#add8e6" stroke="transparent" points="777.8395,-307.741 777.8395,-329.741 905.8395,-329.741 905.8395,-307.741 777.8395,-307.741"/>
<polygon fill="none" stroke="#000000" points="777.8395,-307.741 777.8395,-329.741 905.8395,-329.741 905.8395,-307.741 777.8395,-307.741"/>
<text text-anchor="start" x="828.7855" y="-316.741" font-family="Times,serif" font-weight="bold" font-size="10.00" fill="#000000">Rodeo</text>
<polygon fill="none" stroke="#000000" points="777.8395,-285.741 777.8395,-307.741 905.8395,-307.741 905.8395,-285.741 777.8395,-285.741"/>
<text text-anchor="start" x="782.8395" y="-294.741" font-family="Times,serif" text-decoration="underline" font-size="10.00" fill="#000000">id_rodeo</text>
<text text-anchor="start" x="818.3865" y="-294.741" font-family="Times,serif" font-size="10.00" fill="#000000">: NUMBER</text>
<polygon fill="none" stroke="#000000" points="777.8395,-263.741 777.8395,-285.741 905.8395,-285.741 905.8395,-263.741 777.8395,-263.741"/>
<text text-anchor="start" x="782.8395" y="-272.741" font-family="Times,serif" font-style="italic" text-decoration="underline" font-size="10.00" fill="#000000">id_estancia</text>
<text text-anchor="start" x="827.8215" y="-272.741" font-family="Times,serif" font-size="10.00" fill="#000000">: NUMBER</text>
<polygon fill="none" stroke="#000000" points="777.8395,-241.741 777.8395,-263.741 905.8395,-263.741 905.8395,-241.741 777.8395,-241.741"/>
<text text-anchor="start" x="782.548" y="-250.741" font-family="Times,serif" font-style="italic" text-decoration="underline" font-size="10.00" fill="#000000">id_potrero_actual</text>
<text text-anchor="start" x="853.078" y="-250.741" font-family="Times,serif" font-size="10.00" fill="#000000">: NUMBER</text>
<polygon fill="none" stroke="#000000" points="777.8395,-219.741 777.8395,-241.741 905.8395,-241.741 905.8395,-219.741 777.8395,-219.741"/>
<text text-anchor="start" x="782.8395" y="-227.741" font-family="Times,serif" font-size="10.00" fill="#000000">nombre: STRING</text>
<polygon fill="none" stroke="#000000" points="777.8395,-197.741 777.8395,-219.741 905.8395,-219.741 905.8395,-197.741 777.8395,-197.741"/>
<text text-anchor="start" x="782.8395" y="-205.741" font-family="Times,serif" font-size="10.00" fill="#000000">descripcion: STRING</text>
<polygon fill="none" stroke="#000000" points="777.8395,-175.741 777.8395,-197.741 905.8395,-197.741 905.8395,-175.741 777.8395,-175.741"/>
<text text-anchor="start" x="782.8395" y="-183.741" font-family="Times,serif" font-size="10.00" fill="#000000">activo: BOOLEAN</text>
<polygon fill="none" stroke="#000000" points="777.8395,-153.741 777.8395,-175.741 905.8395,-175.741 905.8395,-153.741 777.8395,-153.741"/>
<text text-anchor="start" x="782.8395" y="-161.741" font-family="Times,serif" font-size="10.00" fill="#000000">createdAt: DATE</text>
<polygon fill="none" stroke="#000000" points="777.8395,-131.741 777.8395,-153.741 905.8395,-153.741 905.8395,-131.741 777.8395,-131.741"/>
<text text-anchor="start" x="782.8395" y="-139.741" font-family="Times,serif" font-size="10.00" fill="#000000">updatedAt: DATE</text>
</g>
<!-- Rodeo&#45;&gt;Estancia -->
<g id="edge4" class="edge">
<title>Rodeo&#45;&gt;Estancia</title>
<path fill="none" stroke="#000000" stroke-width=".75" d="M772.4305,-190.6677C749.1171,-177.2077 723.165,-162.2243 700.0157,-148.8591"/>
<polygon fill="#000000" stroke="#000000" stroke-width=".75" points="772.4763,-190.6941 776.3224,-196.0325 775.0744,-192.1942 777.6725,-193.6942 777.6725,-193.6942 777.6725,-193.6942 775.0744,-192.1942 779.0225,-191.3559 772.4763,-190.6941 772.4763,-190.6941"/>
</g>
<!-- Rodeo&#45;&gt;Potrero -->
<g id="edge5" class="edge">
<title>Rodeo&#45;&gt;Potrero</title>
<path fill="none" stroke="#000000" stroke-width=".75" d="M772.6917,-274.6916C746.8099,-291.1421 717.7664,-309.6023 693.2725,-325.1706"/>
<polygon fill="#000000" stroke="#000000" stroke-width=".75" points="772.7599,-274.6483 779.2719,-273.7084 775.2917,-273.039 777.8236,-271.4297 777.8236,-271.4297 777.8236,-271.4297 775.2917,-273.039 776.3752,-269.151 772.7599,-274.6483 772.7599,-274.6483"/>
</g>
<!-- Ganado -->
<g id="node6" class="node">
<title>Ganado</title>
<polygon fill="#add8e6" stroke="transparent" points="975.8395,-340.741 975.8395,-362.741 1116.8395,-362.741 1116.8395,-340.741 975.8395,-340.741"/>
<polygon fill="none" stroke="#000000" points="975.8395,-340.741 975.8395,-362.741 1116.8395,-362.741 1116.8395,-340.741 975.8395,-340.741"/>
<text text-anchor="start" x="1030.791" y="-349.741" font-family="Times,serif" font-weight="bold" font-size="10.00" fill="#000000">Ganado</text>
<polygon fill="none" stroke="#000000" points="975.8395,-318.741 975.8395,-340.741 1116.8395,-340.741 1116.8395,-318.741 975.8395,-318.741"/>
<text text-anchor="start" x="980.8395" y="-327.741" font-family="Times,serif" text-decoration="underline" font-size="10.00" fill="#000000">id_ganado</text>
<text text-anchor="start" x="1022.4965" y="-327.741" font-family="Times,serif" font-size="10.00" fill="#000000">: NUMBER</text>
<polygon fill="none" stroke="#000000" points="975.8395,-296.741 975.8395,-318.741 1116.8395,-318.741 1116.8395,-296.741 975.8395,-296.741"/>
<text text-anchor="start" x="980.8395" y="-305.741" font-family="Times,serif" font-style="italic" text-decoration="underline" font-size="10.00" fill="#000000">id_rodeo</text>
<text text-anchor="start" x="1016.3865" y="-305.741" font-family="Times,serif" font-size="10.00" fill="#000000">: NUMBER</text>
<polygon fill="none" stroke="#000000" points="975.8395,-274.741 975.8395,-296.741 1116.8395,-296.741 1116.8395,-274.741 975.8395,-274.741"/>
<text text-anchor="start" x="980.3845" y="-282.741" font-family="Times,serif" font-size="10.00" fill="#000000">numero_identificacion: STRING</text>
<polygon fill="none" stroke="#000000" points="975.8395,-252.741 975.8395,-274.741 1116.8395,-274.741 1116.8395,-252.741 975.8395,-252.741"/>
<text text-anchor="start" x="980.8395" y="-260.741" font-family="Times,serif" font-size="10.00" fill="#000000">fecha_nacimiento: DATEONLY</text>
<polygon fill="none" stroke="#000000" points="975.8395,-230.741 975.8395,-252.741 1116.8395,-252.741 1116.8395,-230.741 975.8395,-230.741"/>
<text text-anchor="start" x="980.8395" y="-238.741" font-family="Times,serif" font-size="10.00" fill="#000000">sexo: ENUM</text>
<polygon fill="none" stroke="#000000" points="975.8395,-208.741 975.8395,-230.741 1116.8395,-230.741 1116.8395,-208.741 975.8395,-208.741"/>
<text text-anchor="start" x="980.8395" y="-216.741" font-family="Times,serif" font-size="10.00" fill="#000000">categoria: ENUM</text>
<polygon fill="none" stroke="#000000" points="975.8395,-186.741 975.8395,-208.741 1116.8395,-208.741 1116.8395,-186.741 975.8395,-186.741"/>
<text text-anchor="start" x="980.8395" y="-194.741" font-family="Times,serif" font-size="10.00" fill="#000000">peso_kg: NUMBER</text>
<polygon fill="none" stroke="#000000" points="975.8395,-164.741 975.8395,-186.741 1116.8395,-186.741 1116.8395,-164.741 975.8395,-164.741"/>
<text text-anchor="start" x="980.8395" y="-172.741" font-family="Times,serif" font-size="10.00" fill="#000000">estado: ENUM</text>
<polygon fill="none" stroke="#000000" points="975.8395,-142.741 975.8395,-164.741 1116.8395,-164.741 1116.8395,-142.741 975.8395,-142.741"/>
<text text-anchor="start" x="980.8395" y="-150.741" font-family="Times,serif" font-size="10.00" fill="#000000">observaciones: STRING</text>
<polygon fill="none" stroke="#000000" points="975.8395,-120.741 975.8395,-142.741 1116.8395,-142.741 1116.8395,-120.741 975.8395,-120.741"/>
<text text-anchor="start" x="980.8395" y="-128.741" font-family="Times,serif" font-size="10.00" fill="#000000">createdAt: DATE</text>
<polygon fill="none" stroke="#000000" points="975.8395,-98.741 975.8395,-120.741 1116.8395,-120.741 1116.8395,-98.741 975.8395,-98.741"/>
<text text-anchor="start" x="980.8395" y="-106.741" font-family="Times,serif" font-size="10.00" fill="#000000">updatedAt: DATE</text>
</g>
<!-- Ganado&#45;&gt;Rodeo -->
<g id="edge6" class="edge">
<title>Ganado&#45;&gt;Rodeo</title>
<path fill="none" stroke="#000000" stroke-width=".75" d="M968.9639,-230.741C948.2112,-230.741 925.9789,-230.741 906.0025,-230.741"/>
<polygon fill="#000000" stroke="#000000" stroke-width=".75" points="969.0627,-230.7411 975.0627,-233.441 972.0627,-230.7411 975.0627,-230.741 975.0627,-230.741 975.0627,-230.741 972.0627,-230.7411 975.0626,-228.041 969.0627,-230.7411 969.0627,-230.7411"/>
</g>
</g>
</svg>
